<mxfile host="app.diagrams.net" modified="2022-10-29T14:36:18.896Z" agent="5.0 (Macintosh; Intel Mac OS X 10_15_7) AppleWebKit/605.1.15 (KHTML, like Gecko) Version/16.1 Safari/605.1.15" etag="foCneXywGKm4eCqXbFbA" version="20.5.1" type="github">
  <diagram id="R2lEEEUBdFMjLlhIrx00" name="Page-1">
    <mxGraphModel dx="946" dy="645" grid="1" gridSize="10" guides="1" tooltips="1" connect="1" arrows="1" fold="1" page="1" pageScale="1" pageWidth="1169" pageHeight="827" math="0" shadow="0" extFonts="Permanent Marker^https://fonts.googleapis.com/css?family=Permanent+Marker">
      <root>
        <mxCell id="0" />
        <mxCell id="1" parent="0" />
        <mxCell id="jtC_G04wY8MZHHcfjUKp-48" value="" style="shape=partialRectangle;whiteSpace=wrap;html=1;left=0;right=0;fillColor=none;strokeColor=default;fontFamily=Helvetica;fontSize=12;fontColor=default;rotation=90;" vertex="1" parent="1">
          <mxGeometry x="550" y="515" width="50" height="20" as="geometry" />
        </mxCell>
        <mxCell id="jtC_G04wY8MZHHcfjUKp-17" value="" style="endArrow=none;html=1;rounded=0;" edge="1" parent="1">
          <mxGeometry relative="1" as="geometry">
            <mxPoint x="220" y="420" as="sourcePoint" />
            <mxPoint x="380" y="420" as="targetPoint" />
          </mxGeometry>
        </mxCell>
        <mxCell id="jtC_G04wY8MZHHcfjUKp-18" value="M" style="resizable=0;html=1;align=left;verticalAlign=bottom;" connectable="0" vertex="1" parent="jtC_G04wY8MZHHcfjUKp-17">
          <mxGeometry x="-1" relative="1" as="geometry" />
        </mxCell>
        <mxCell id="jtC_G04wY8MZHHcfjUKp-19" value="N" style="resizable=0;html=1;align=right;verticalAlign=bottom;" connectable="0" vertex="1" parent="jtC_G04wY8MZHHcfjUKp-17">
          <mxGeometry x="1" relative="1" as="geometry" />
        </mxCell>
        <mxCell id="jtC_G04wY8MZHHcfjUKp-20" value="" style="endArrow=none;html=1;rounded=0;entryX=0.5;entryY=0;entryDx=0;entryDy=0;exitX=1;exitY=1;exitDx=0;exitDy=0;" edge="1" parent="1" source="jtC_G04wY8MZHHcfjUKp-22" target="jtC_G04wY8MZHHcfjUKp-42">
          <mxGeometry relative="1" as="geometry">
            <mxPoint x="580" y="560" as="sourcePoint" />
            <mxPoint x="680" y="320" as="targetPoint" />
            <Array as="points" />
          </mxGeometry>
        </mxCell>
        <mxCell id="jtC_G04wY8MZHHcfjUKp-21" value="" style="endArrow=none;html=1;rounded=0;entryX=0.5;entryY=0;entryDx=0;entryDy=0;exitX=0;exitY=1;exitDx=0;exitDy=0;" edge="1" parent="1" source="jtC_G04wY8MZHHcfjUKp-22" target="jtC_G04wY8MZHHcfjUKp-37">
          <mxGeometry relative="1" as="geometry">
            <mxPoint x="540" y="560" as="sourcePoint" />
            <mxPoint x="600" y="580" as="targetPoint" />
          </mxGeometry>
        </mxCell>
        <mxCell id="jtC_G04wY8MZHHcfjUKp-22" value="" style="ellipse;whiteSpace=wrap;html=1;aspect=fixed;" vertex="1" parent="1">
          <mxGeometry x="555" y="540" width="40" height="40" as="geometry" />
        </mxCell>
        <mxCell id="jtC_G04wY8MZHHcfjUKp-23" value="" style="ellipse;whiteSpace=wrap;html=1;aspect=fixed;" vertex="1" parent="1">
          <mxGeometry x="565" y="550" width="20" height="20" as="geometry" />
        </mxCell>
        <mxCell id="jtC_G04wY8MZHHcfjUKp-25" value="Nutzer" style="whiteSpace=wrap;html=1;align=center;" vertex="1" parent="1">
          <mxGeometry x="120" y="180" width="100" height="40" as="geometry" />
        </mxCell>
        <mxCell id="jtC_G04wY8MZHHcfjUKp-27" value="Relationship" style="shape=rhombus;perimeter=rhombusPerimeter;whiteSpace=wrap;html=1;align=center;" vertex="1" parent="1">
          <mxGeometry x="290" y="150" width="120" height="60" as="geometry" />
        </mxCell>
        <mxCell id="jtC_G04wY8MZHHcfjUKp-33" value="Attribute" style="ellipse;whiteSpace=wrap;html=1;align=center;fontStyle=4;" vertex="1" parent="1">
          <mxGeometry x="300" y="310" width="100" height="40" as="geometry" />
        </mxCell>
        <mxCell id="jtC_G04wY8MZHHcfjUKp-34" value="Attribute" style="ellipse;whiteSpace=wrap;html=1;align=center;" vertex="1" parent="1">
          <mxGeometry x="150" y="280" width="100" height="40" as="geometry" />
        </mxCell>
        <mxCell id="jtC_G04wY8MZHHcfjUKp-35" value="Wettervorhersage" style="whiteSpace=wrap;html=1;align=center;" vertex="1" parent="1">
          <mxGeometry x="130" y="60" width="120" height="40" as="geometry" />
        </mxCell>
        <mxCell id="jtC_G04wY8MZHHcfjUKp-36" value="Warninformation" style="whiteSpace=wrap;html=1;align=center;" vertex="1" parent="1">
          <mxGeometry x="525" y="460" width="100" height="40" as="geometry" />
        </mxCell>
        <mxCell id="jtC_G04wY8MZHHcfjUKp-37" value="Warnung amtlich" style="whiteSpace=wrap;html=1;align=center;" vertex="1" parent="1">
          <mxGeometry x="465" y="640" width="100" height="40" as="geometry" />
        </mxCell>
        <mxCell id="jtC_G04wY8MZHHcfjUKp-39" value="Mitarbeiter" style="whiteSpace=wrap;html=1;align=center;" vertex="1" parent="1">
          <mxGeometry x="170" y="230" width="100" height="40" as="geometry" />
        </mxCell>
        <mxCell id="jtC_G04wY8MZHHcfjUKp-40" value="Standort" style="whiteSpace=wrap;html=1;align=center;" vertex="1" parent="1">
          <mxGeometry x="140" y="120" width="100" height="40" as="geometry" />
        </mxCell>
        <mxCell id="jtC_G04wY8MZHHcfjUKp-42" value="Warnlagebericht" style="whiteSpace=wrap;html=1;align=center;" vertex="1" parent="1">
          <mxGeometry x="585" y="640" width="100" height="40" as="geometry" />
        </mxCell>
        <mxCell id="jtC_G04wY8MZHHcfjUKp-55" value="" style="shape=requiredInterface;html=1;verticalLabelPosition=bottom;sketch=0;strokeColor=default;fontFamily=Helvetica;fontSize=12;fontColor=default;fillColor=default;rotation=115;" vertex="1" parent="1">
          <mxGeometry x="530" y="600" width="10" height="20" as="geometry" />
        </mxCell>
        <mxCell id="jtC_G04wY8MZHHcfjUKp-58" value="" style="shape=requiredInterface;html=1;verticalLabelPosition=bottom;sketch=0;strokeColor=default;fontFamily=Helvetica;fontSize=12;fontColor=default;fillColor=default;rotation=45;" vertex="1" parent="1">
          <mxGeometry x="610" y="600" width="10" height="20" as="geometry" />
        </mxCell>
      </root>
    </mxGraphModel>
  </diagram>
</mxfile>
